<svg xmlns="http://www.w3.org/2000/svg" width="172.555" height="106.984" viewBox="0 0 172.555 106.984"><g transform="translate(28 4.984)"><path d="M9.216,10.015c2.7-.107,9.275-.323,12.619-1.078-.109,1.4-.324,5.717-.324,13.913v3.667c3.02-2.481,5.5-3.776,8.521-3.776A8.882,8.882,0,0,1,37.8,26.733a16.922,16.922,0,0,1,2.157,8.736c0,10.029-4.745,15.746-14.345,15.746a18.093,18.093,0,0,1-7.549-1.834c-1.294.431-3.02,1.294-4.745,1.834l-.54-.324c.109-2.913.109-8.412.109-15.854v-13.8c0-3.451-.109-5.824-.216-7.872-.109-1.4-.431-1.619-3.667-1.619ZM25.608,49.165c3.667,0,5.392-4.423,5.392-12.619a17.812,17.812,0,0,0-1.51-7.981,3.889,3.889,0,0,0-3.451-2.157,4.967,4.967,0,0,0-3.991,2.373c-.538.756-.754,1.4-.754,9.922,0,7.011.324,7.227.756,8.089A3.882,3.882,0,0,0,25.608,49.165Zm33.217,1.4c-2.266,0-4.53-.217-8.089-.217-3.774,0-5.608.217-7.441.217V48.733c3.02-.109,3.451-.647,3.56-1.834.107-1.294.216-3.342.216-6.687v-6.9c0-2.8,0-5.068-.109-6.039s-.54-1.294-3.344-1.185V24.251c3.776-.323,8.305-.431,11.972-1.185-.109,1.4-.216,3.991-.216,9.922V40.43c0,3.451.109,4.961.216,6.471s.54,1.726,3.235,2.048ZM50.736,10.556c2.806,0,4.423,1.619,4.423,4.53,0,2.481-1.834,4.207-4.638,4.207a4.02,4.02,0,0,1-4.205-4.207,4.275,4.275,0,0,1,4.423-4.53Zm10.893-.54A79.525,79.525,0,0,0,73.386,8.937q-.219,6.684-.217,13.373V35.792c2.05-.54,6.471-5.932,8.2-9.059.324-.647.324-.971-.538-.971l-2.373-.216V23.713c3.991.109,8.089-.109,12.188-.324v1.834c-3.02.324-4.207.54-5.394,1.51a50.462,50.462,0,0,0-5.177,5.392c1.294,2.7,6.688,12.619,8.736,15.314a3.007,3.007,0,0,0,2.7,1.294l1.508.109-.107,1.833a79.947,79.947,0,0,0-11.972.647C79.639,48.3,75.757,40.968,74.571,38.7c-.647-1.185-.971-1.617-1.4-1.51,0,4.423-.107,6.58.109,9.706.109,1.4.431,1.834,3.344,1.941v1.834c-2.05,0-4.207-.216-7.765-.216-4.207,0-6.039.216-7.658.216V48.84c2.8-.107,3.235-.645,3.344-1.726.107-1.294.214-4.1.214-9.706V23.5c0-4.423,0-7.765-.107-10.569q0-.971-1.294-.971H61.521Zm-25.99,67.19c-1.834,5.824-5.392,8.628-11.325,8.628-5.07,0-8.305-1.4-10.569-4.423-1.726-2.264-2.588-5.608-2.588-9.382,0-8.305,5.07-14.667,14.345-14.667,5.608,0,9.706,2.588,9.706,6.8a4.055,4.055,0,0,1-4.314,4.1,4.894,4.894,0,0,1-2.157-.538,1.685,1.685,0,0,1-.756-1.941,16.246,16.246,0,0,0,.324-2.266c0-2.7-.971-3.989-3.02-3.989-3.344,0-5.07,4.854-5.07,11.541,0,2.7.324,5.715,1.294,7.548,1.078,2.481,2.8,3.882,5.392,3.882,3.235,0,5.285-1.833,6.8-6.039Zm6.146-7.872a60.254,60.254,0,0,0-.324-7.551,1.136,1.136,0,0,0-1.294-1.077H38.226V58.871c3.235-.109,7.658-.324,10.785-1.294l.324.216c.216,1.294.431,4.423.54,6.364h.214c1.4-3.776,3.344-6.8,7.335-6.8a4.064,4.064,0,0,1,3.991,4.314c0,3.56-2.7,4.638-3.776,4.638a2.088,2.088,0,0,1-2.157-1.08c-.538-1.185-.863-1.833-1.94-1.833-1.187,0-1.834,1.078-2.588,2.8a11.45,11.45,0,0,0-.54,3.882c0,6.148,0,9.6.109,11.109s.645,1.94,4.959,2.048l-.107,1.834c-3.02-.109-5.717-.217-8.843-.217-3.235,0-5.608.109-8.305.217l.323-1.834c2.588-.109,3.235-.431,3.235-1.51.109-1.51.216-4.423.216-7.765V69.331h-.216Zm36.561-4.961c0-3.237-1.08-4.963-3.237-4.963-2.48,0-3.665,1.4-3.665,3.991a12.039,12.039,0,0,0,.214,2.05,1.536,1.536,0,0,1-.645,1.617,5.9,5.9,0,0,1-3.02.971c-2.05,0-3.776-.973-3.776-3.344,0-3.451,5.07-7.334,12.188-7.334,5.822,0,8.41,2.373,9.382,3.882a5.419,5.419,0,0,1,.863,2.913V80.009c0,1.834.54,2.266,1.187,2.266.863,0,1.833-1.4,2.264-3.776l1.834.863c-.971,4.638-3.776,6.58-7.658,6.58-3.344,0-5.177-1.4-5.717-4.207-2.588,2.588-5.284,4.207-8.088,4.207-4.53,0-7.549-3.02-7.549-7.982,0-3.02,1.294-4.745,3.56-5.715,3.665-1.619,9.166-3.235,11.861-5.177v-2.7Zm-6.8,11.97c0,2.373.971,4.961,3.344,4.961a3.213,3.213,0,0,0,3.02-2.157,8.012,8.012,0,0,0,.323-2.588V69.224c-1.187.756-3.02,1.619-4.423,2.481C72.521,72.569,71.551,73.645,71.551,76.342Zm21.354-18.01,3.451.107V56.714c.109-4.53,1.187-7.874,3.56-10.246a10.658,10.658,0,0,1,7.872-3.235c4.423,0,6.8,2.157,6.8,4.961,0,2.05-1.726,3.451-4.1,3.451a2.038,2.038,0,0,1-2.157-2.157c0-2.264-.323-4.1-1.94-4.1-1.08,0-1.726.97-1.943,2.8-.214,1.726.109,4.961.324,10.029h5.285l-.324,2.157-4.961.324c-.109,2.048-.109,5.608-.109,9.813,0,3.991,0,7.549.109,10.353.109,1.4.324,1.941,1.51,2.05a28.754,28.754,0,0,0,2.913.214l-.219,1.834c-2.048,0-5.284-.216-8.088-.216-2.913,0-6.364.216-8.305.216l.109-1.834c2.8-.107,3.235-.431,3.344-1.617.214-1.834.214-4.638.214-8.412V60.6l-3.665-.216.323-2.05Z" transform="translate(-21.47 1.5)" fill="#fec63e"/><path d="M86.908,41.6l-.217,2.048-6.578.431c0,2.266-.109,5.608-.109,10.138,0,4.745,0,7.981.217,9.922.107,1.4.645,2.05,1.726,2.05,2.264,0,3.665-2.481,4.205-4.745h.863l.756,2.48c-1.294,3.128-4.531,5.285-9.277,5.285-2.588,0-4.852-.863-5.931-2.157a5.942,5.942,0,0,1-1.078-3.882c0-4.423.216-14.345.216-19.09l-3.451-.324.216-2.048H71.7c.109-2.05.109-4.423.109-6.58A29.806,29.806,0,0,0,79.9,32l.647.109q-.283,4.794-.324,9.6h6.688V41.6Z" transform="translate(24.519 17.233)" fill="#fec63e"/><path d="M163.928,8.628V98.357H8.628V8.628ZM172.555,0H0V106.984H172.555Z" transform="translate(-28 -4.984)" fill="#fec63e"/></g></svg>